<svg viewBox="0 0 128 128" xmlns="http://www.w3.org/2000/svg"><circle cx="64" cy="64" r="64" fill="#267cb5"/><path d="M103 29H53c-.6 0-1 .4-1 1v12c0 .6.4 1 1 1h50c.6 0 1-.4 1-1V30c0-.6-.4-1-1-1zm0 28H53c-.6 0-1 .4-1 1v12c0 .6.4 1 1 1h50c.6 0 1-.4 1-1V58c0-.6-.4-1-1-1zm0 28H53c-.6 0-1 .4-1 1v12c0 .6.4 1 1 1h50c.6 0 1-.4 1-1V86c0-.6-.4-1-1-1zM37 29H25c-.6 0-1 .4-1 1v12c0 .6.4 1 1 1h12c.6 0 1-.4 1-1V30c0-.6-.4-1-1-1zm0 28H25c-.6 0-1 .4-1 1v12c0 .6.4 1 1 1h12c.6 0 1-.4 1-1V58c0-.6-.4-1-1-1zm0 28H25c-.6 0-1 .4-1 1v12c0 .6.4 1 1 1h12c.6 0 1-.4 1-1V86c0-.6-.4-1-1-1z" fill="#fff"/></svg>